<svg width="60" height="60" viewBox="0 0 60 60" fill="none" xmlns="http://www.w3.org/2000/svg">
<rect width="60" height="60" rx="16" fill="#4F1CFF"/>
<path d="M22.8892 16.0367C21.2669 13.9984 19.0205 13 16.1086 13C13.3214 13 10.9503 14.0816 8.95354 16.2031C6.99838 18.3247 6 20.9038 6 23.9822C6 27.0605 6.99838 29.6812 8.95354 31.8028C10.9503 33.9243 13.3214 34.9643 16.1086 34.9643C19.0205 34.9643 21.2669 33.9659 22.8892 31.9276V34.3819H28.2555V13.5824H22.8892V16.0367ZM12.9886 28.2253C11.9071 27.1021 11.3663 25.6877 11.3663 23.9822C11.3663 22.2766 11.9071 20.8622 12.9886 19.7806C14.0702 18.6575 15.443 18.1167 17.107 18.1167C18.7709 18.1167 20.1437 18.6575 21.2253 19.7806C22.3484 20.8622 22.8892 22.2766 22.8892 23.9822C22.8892 25.6877 22.3484 27.1021 21.2253 28.2253C20.1437 29.3068 18.7709 29.8476 17.107 29.8476C15.443 29.8476 14.0702 29.3068 12.9886 28.2253Z" fill="white"/>
<path d="M48.9293 16.0367C47.3069 13.9984 45.0606 13 42.1486 13C39.3615 13 36.9903 14.0816 34.9936 16.2031C33.0384 18.3247 32.04 20.9038 32.04 23.9822C32.04 27.0605 33.0384 29.6812 34.9936 31.8028C36.9903 33.9243 39.3615 34.9643 42.1486 34.9643C45.0606 34.9643 47.3069 33.9659 48.9293 31.9276V34.3819H54.2956V13.5824H48.9293V16.0367ZM39.0287 28.2253C37.9471 27.1021 37.4063 25.6877 37.4063 23.9822C37.4063 22.2766 37.9471 20.8622 39.0287 19.7806C40.1103 18.6575 41.483 18.1167 43.147 18.1167C44.811 18.1167 46.1837 18.6575 47.2653 19.7806C48.3885 20.8622 48.9293 22.2766 48.9293 23.9822C48.9293 25.6877 48.3885 27.1021 47.2653 28.2253C46.1837 29.3068 44.811 29.8476 43.147 29.8476C41.483 29.8476 40.1103 29.3068 39.0287 28.2253Z" fill="white"/>
<path fill-rule="evenodd" clip-rule="evenodd" d="M35.7205 46.4222C29.9998 47.5522 22.3061 47.4411 15.043 42.2116L18.0813 37.9917C24.9436 42.9326 35.4989 42.5371 42.6694 38.4587C42.713 38.4339 42.7437 38.416 42.761 38.4058L42.7753 38.3973L42.7739 38.3982C42.7739 38.3982 42.7722 38.3992 44.1215 40.6216C45.4708 42.844 45.4688 42.8453 45.4688 42.8453L45.4664 42.8467L45.4606 42.8502L45.445 42.8596L45.3977 42.8876C45.3591 42.9103 45.3065 42.9409 45.2403 42.9786C45.1079 43.0539 44.921 43.1575 44.6837 43.2827C44.2094 43.5329 43.5312 43.8705 42.681 44.2405C40.9858 44.9784 38.5784 45.8577 35.7205 46.4222Z" fill="white"/>
<circle cx="19.6829" cy="22.4221" r="3.63992" fill="white"/>
<circle cx="45.1614" cy="22.4221" r="3.63992" fill="white"/>
</svg>
